<?xml version="1.0" encoding="UTF-8" standalone="no"?>
<!DOCTYPE svg PUBLIC "-//W3C//DTD SVG 1.1//EN"
 "http://www.w3.org/Graphics/SVG/1.1/DTD/svg11.dtd">
<!-- Generated by graphviz version 2.49.0 (20210828.1703)
 -->
<!-- Title: extended::map&lt; A, std::string &gt; Pages: 1 -->
<svg width="140pt" height="270pt"
 viewBox="0.00 0.00 140.00 270.00" xmlns="http://www.w3.org/2000/svg" xmlns:xlink="http://www.w3.org/1999/xlink">
<g id="graph0" class="graph" transform="scale(1 1) rotate(0) translate(4 266)">
<title>extended::map&lt; A, std::string &gt;</title>
<polygon fill="white" stroke="transparent" points="-4,4 -4,-266 136,-266 136,4 -4,4"/>
<!-- Node1 -->
<g id="node1" class="node">
<title>Node1</title>
<g id="a_node1"><a xlink:title="The memory saving version of std::map&lt;A, std::string&gt;.">
<polygon fill="#bfbfbf" stroke="black" points="0,-0.5 0,-167.5 132,-167.5 132,-0.5 0,-0.5"/>
<text text-anchor="start" x="8" y="-155.5" font-family="Helvetica,sans-Serif" font-size="10.00">extended::map&lt; A, std</text>
<text text-anchor="middle" x="66" y="-144.5" font-family="Helvetica,sans-Serif" font-size="10.00">::string &gt;</text>
<polyline fill="none" stroke="black" points="0,-137.5 132,-137.5 "/>
<text text-anchor="start" x="8" y="-125.5" font-family="Helvetica,sans-Serif" font-size="10.00"># std::string default</text>
<text text-anchor="start" x="8" y="-114.5" font-family="Helvetica,sans-Serif" font-size="10.00">_value</text>
<polyline fill="none" stroke="black" points="0,-107.5 132,-107.5 "/>
<text text-anchor="start" x="8" y="-95.5" font-family="Helvetica,sans-Serif" font-size="10.00">+ map()</text>
<text text-anchor="start" x="8" y="-84.5" font-family="Helvetica,sans-Serif" font-size="10.00">+ map(std::string)</text>
<text text-anchor="start" x="8" y="-73.5" font-family="Helvetica,sans-Serif" font-size="10.00">+ map(std::string, Args...)</text>
<text text-anchor="start" x="8" y="-62.5" font-family="Helvetica,sans-Serif" font-size="10.00">+ std::string operator&gt;&gt;(A)</text>
<text text-anchor="start" x="8" y="-51.5" font-family="Helvetica,sans-Serif" font-size="10.00">+ void operator()(std</text>
<text text-anchor="start" x="8" y="-40.5" font-family="Helvetica,sans-Serif" font-size="10.00">::pair&lt; A, std::string &gt;)</text>
<text text-anchor="start" x="8" y="-29.5" font-family="Helvetica,sans-Serif" font-size="10.00">+ void operator&lt;&lt;(std</text>
<text text-anchor="start" x="8" y="-18.5" font-family="Helvetica,sans-Serif" font-size="10.00">::pair&lt; A, std::string &gt;)</text>
<text text-anchor="start" x="8" y="-7.5" font-family="Helvetica,sans-Serif" font-size="10.00">+ void operator!()</text>
</a>
</g>
</g>
<!-- Node2 -->
<g id="node2" class="node">
<title>Node2</title>
<g id="a_node2"><a xlink:title=" ">
<polygon fill="white" stroke="#bfbfbf" points="1.5,-204.5 1.5,-261.5 130.5,-261.5 130.5,-204.5 1.5,-204.5"/>
<text text-anchor="middle" x="66" y="-249.5" font-family="Helvetica,sans-Serif" font-size="10.00">std::map&lt; A, std::string &gt;</text>
<polyline fill="none" stroke="#bfbfbf" points="1.5,-242.5 130.5,-242.5 "/>
<text text-anchor="middle" x="66" y="-230.5" font-family="Helvetica,sans-Serif" font-size="10.00"> </text>
<polyline fill="none" stroke="#bfbfbf" points="1.5,-223.5 130.5,-223.5 "/>
<text text-anchor="middle" x="66" y="-211.5" font-family="Helvetica,sans-Serif" font-size="10.00"> </text>
</a>
</g>
</g>
<!-- Node2&#45;&gt;Node1 -->
<g id="edge1" class="edge">
<title>Node2&#45;&gt;Node1</title>
<path fill="none" stroke="midnightblue" d="M66,-194.35C66,-186.08 66,-177.01 66,-167.74"/>
<polygon fill="none" stroke="midnightblue" points="62.5,-194.35 66,-204.35 69.5,-194.35 62.5,-194.35"/>
</g>
</g>
</svg>
