<?xml version="1.0" encoding="UTF-8" standalone="no"?>
<!DOCTYPE svg PUBLIC "-//W3C//DTD SVG 1.1//EN"
 "http://www.w3.org/Graphics/SVG/1.1/DTD/svg11.dtd">
<!-- Generated by graphviz version 2.49.0 (20210828.1703)
 -->
<!-- Title: Graphical Class Hierarchy Pages: 1 -->
<svg width="218pt" height="78pt"
 viewBox="0.00 0.00 218.00 77.50" xmlns="http://www.w3.org/2000/svg" xmlns:xlink="http://www.w3.org/1999/xlink">
<g id="graph0" class="graph" transform="scale(1 1) rotate(0) translate(4 73.5)">
<title>Graphical Class Hierarchy</title>
<polygon fill="white" stroke="transparent" points="-4,4 -4,-73.5 214,-73.5 214,4 -4,4"/>
<!-- Node1 -->
<g id="node1" class="node">
<title>Node1</title>
<g id="a_node1"><a xlink:title=" ">
<polygon fill="white" stroke="#bfbfbf" points="0,-28 0,-47 55,-47 55,-28 0,-28"/>
<text text-anchor="middle" x="27.5" y="-35" font-family="Helvetica,sans-Serif" font-size="10.00">std::map</text>
</a>
</g>
</g>
<!-- Node0 -->
<g id="node2" class="node">
<title>Node0</title>
<g id="a_node2"><a xlink:href="classextended_1_1map.html" target="_top" xlink:title="The memory saving version of std::map&lt;A, B&gt;.">
<polygon fill="white" stroke="black" points="91,-50 91,-69 210,-69 210,-50 91,-50"/>
<text text-anchor="middle" x="150.5" y="-57" font-family="Helvetica,sans-Serif" font-size="10.00">extended::map&lt; A, B &gt;</text>
</a>
</g>
</g>
<!-- Node1&#45;&gt;Node0 -->
<g id="edge1" class="edge">
<title>Node1&#45;&gt;Node0</title>
<path fill="none" stroke="midnightblue" d="M65.13,-44.16C75.23,-46 86.38,-48.02 97.17,-49.99"/>
<polygon fill="midnightblue" stroke="midnightblue" points="65.52,-40.67 55.05,-42.33 64.27,-47.56 65.52,-40.67"/>
</g>
<!-- Node3 -->
<g id="node3" class="node">
<title>Node3</title>
<g id="a_node3"><a xlink:href="classextended_1_1map_3_01_a_00_01std_1_1string_01_4.html" target="_top" xlink:title="The memory saving version of std::map&lt;A, std::string&gt;.">
<polygon fill="white" stroke="black" points="92.5,-0.5 92.5,-30.5 208.5,-30.5 208.5,-0.5 92.5,-0.5"/>
<text text-anchor="start" x="100.5" y="-18.5" font-family="Helvetica,sans-Serif" font-size="10.00">extended::map&lt; A, std</text>
<text text-anchor="middle" x="150.5" y="-7.5" font-family="Helvetica,sans-Serif" font-size="10.00">::string &gt;</text>
</a>
</g>
</g>
<!-- Node1&#45;&gt;Node3 -->
<g id="edge2" class="edge">
<title>Node1&#45;&gt;Node3</title>
<path fill="none" stroke="midnightblue" d="M65.08,-30.85C73.66,-29.29 83.01,-27.59 92.25,-25.91"/>
<polygon fill="midnightblue" stroke="midnightblue" points="64.27,-27.44 55.05,-32.67 65.52,-34.33 64.27,-27.44"/>
</g>
</g>
</svg>
